<svg width="100" height="29" fill="none" xmlns="http://www.w3.org/2000/svg"><rect width="100" height="29" rx="14.5" fill="#F9F9F9"/><path d="M26.65 13a3.4 3.4 0 0 0-3.51-2.85c-2.23 0-3.85 1.72-3.85 4.49 0 2.76 1.62 4.48 3.85 4.48a3.4 3.4 0 0 0 3.51-2.85h-1.06c-.25 1.21-1.3 1.86-2.45 1.86-1.59 0-2.83-1.23-2.83-3.5 0-2.26 1.24-3.49 2.83-3.49 1.16 0 2.2.65 2.45 1.86h1.06Zm4.23 6.14c1.77 0 2.97-1.35 2.97-3.38 0-2.04-1.2-3.4-2.97-3.4-1.77 0-2.97 1.36-2.97 3.4 0 2.03 1.2 3.38 2.97 3.38Zm0-.9c-1.35 0-1.96-1.17-1.96-2.48s.61-2.49 1.96-2.49 1.96 1.18 1.96 2.5c0 1.3-.61 2.46-1.96 2.46Zm4.98-5.79H34.7l2.08 3.28L34.7 19h1.16l1.57-2.54L39 19h1.16l-2.12-3.27 2.12-3.28H39l-1.57 2.68-1.57-2.68Zm5.73 9h1V18h.1c.21.36.64 1.15 1.9 1.15 1.64 0 2.78-1.32 2.78-3.4 0-2.06-1.14-3.37-2.8-3.37-1.27 0-1.67.78-1.89 1.12h-.12v-1.04h-.97v9Zm1-5.72c0-1.47.64-2.46 1.87-2.46 1.27 0 1.9 1.08 1.9 2.46 0 1.4-.64 2.5-1.9 2.5-1.21 0-1.88-1.02-1.88-2.5Zm8.24 3.42c1.14 0 1.74-.61 1.94-1.04h.06V19h1v-4.31c0-2.08-1.58-2.32-2.42-2.32-.99 0-2.11.34-2.62 1.53l.95.34c.22-.47.75-.98 1.7-.98.93 0 1.39.49 1.39 1.33v.03c0 .49-.5.44-1.7.6-1.2.15-2.53.42-2.53 1.92 0 1.28.99 2.01 2.23 2.01Zm.15-.9c-.8 0-1.38-.36-1.38-1.06 0-.76.7-1 1.49-1.1.42-.06 1.56-.18 1.74-.38v.92c0 .82-.65 1.62-1.85 1.62Zm5.7-5.8h-1.01V19h1v-2.8h3.14V19h1v-6.55h-1v2.82h-3.14v-2.82Zm6.98 5.07v-5.07h-1V19h1.17l3.13-5.06V19h1v-6.55h-1.15l-3.15 5.07Zm5.26-4.13h2.17V19h1v-5.6h2.15v-.95h-5.32v.94Zm7.8 1.43v-2.37H75.7V19h2.74c1.53 0 2.37-.94 2.37-2.11 0-1.2-.84-2.07-2.37-2.07h-1.74Zm0 .94h1.73c.8 0 1.36.49 1.36 1.18 0 .66-.56 1.12-1.36 1.12h-1.74v-2.3Z" fill="#000"/></svg>