<svg width="320" height="230" fill="none" xmlns="http://www.w3.org/2000/svg"><path opacity=".7" fill-rule="evenodd" clip-rule="evenodd" d="M0 224.62a131.02 131.02 0 0 0 27.1-13.7 48.68 48.68 0 0 0 10.68 10.1c22.26 15.42 54.9 10.3 86.19-10.13 3.03 3.9 6.6 7.3 10.69 10.13 22.26 15.41 54.9 10.3 86.19-10.1a48.72 48.72 0 0 0 10.67 10.1c22.27 15.42 54.9 10.3 86.19-10.13.73.94 1.5 1.85 2.29 2.73v-3.07c-.2-.25-.41-.5-.61-.77l.61-.41v-2.42l-1.82 1.24c-8.96-12.4-12.85-29.69-11.59-49.55 1.04-16.26 5.53-34.1 13.41-52.12v-4.86c-19.42 41.74-20.95 83.39-3.5 107.63a135.77 135.77 0 0 1-18.77 10.3c-24.63 10.98-48.13 11.52-65.07-.21a46.65 46.65 0 0 1-10.14-9.58c3.58-2.4 7.15-5 10.67-7.8v-2.56c-3.92 3.17-7.88 6.1-11.87 8.76-8.97-12.4-12.86-29.69-11.6-49.56 1.7-26.8 12.8-57.95 33-86.98 14.64-21.01 31.97-37.96 49.76-49.88 7.3 10.1 11.24 23.41 11.77 38.73h2c-.53-15.6-4.54-29.35-12.1-39.83 6.23-4.06 12.5-7.5 18.73-10.27 2.39-1.06 4.76-2.03 7.12-2.9V5.4a130.94 130.94 0 0 0-27.05 13.69 48.73 48.73 0 0 0-10.67-10.1C260-6.44 227.35-1.32 196.04 19.12c-3.03-3.9-6.6-7.3-10.7-10.14-22.25-15.41-54.86-10.3-86.14 10.1a48.7 48.7 0 0 0-10.67-10.1C66.26-6.44 33.61-1.32 2.3 19.12c-.74-.95-1.5-1.86-2.3-2.75v3.08c.21.25.42.51.62.78l-.62.42v2.42c.6-.42 1.22-.84 1.83-1.24 8.95 12.4 12.84 29.67 11.58 49.53C12.37 87.62 7.88 105.47 0 123.48v4.86C19.42 86.61 20.95 44.96 3.5 20.72A136.04 136.04 0 0 1 22.3 10.4C46.94-.57 70.45-1.11 87.4 10.62a46.68 46.68 0 0 1 10.14 9.57C79.54 32.25 62.07 49.37 47.34 70.53 11.92 121.43 4.05 179 25.9 209.3a136.1 136.1 0 0 1-18.75 10.28A113.7 113.7 0 0 1 0 222.5v2.13Zm27.58-16.42c-8.97-12.4-12.86-29.69-11.6-49.56 1.7-26.8 12.8-57.95 33-86.98C63.62 50.65 80.96 33.7 98.74 21.8c7.3 10.08 11.24 23.4 11.78 38.72h2c-.54-15.6-4.54-29.35-12.1-39.83a135.9 135.9 0 0 1 18.73-10.27c24.63-10.98 48.13-11.52 65.06.21a46.66 46.66 0 0 1 10.17 9.6c-17.97 12.07-35.43 29.17-50.15 50.3-35.42 50.9-43.3 108.45-21.45 138.77a135.92 135.92 0 0 1-18.78 10.3c-24.63 10.98-48.13 11.52-65.07-.21a46.67 46.67 0 0 1-10.14-9.58c3.58-2.4 7.14-5 10.67-7.8v-2.56c-3.92 3.17-7.89 6.1-11.87 8.76ZM281.13 10.62a46.67 46.67 0 0 1 10.14 9.57c-17.99 12.06-35.46 29.18-50.19 50.34-35.42 50.9-43.28 108.47-21.44 138.78a136.14 136.14 0 0 1-18.75 10.28c-24.64 10.98-48.14 11.52-65.09-.21a46.66 46.66 0 0 1-10.16-9.6c17.97-12.06 35.43-29.16 50.15-50.3 35.4-50.89 43.28-108.44 21.46-138.76a136.04 136.04 0 0 1 18.8-10.31c24.63-10.98 48.14-11.52 65.08.21Zm-156.7 197.56c17.78-11.9 35.1-28.84 49.71-49.84 20.2-29.03 31.3-60.17 33.01-86.98 1.26-19.86-2.63-37.13-11.58-49.53-17.77 11.9-35.09 28.84-49.7 49.83-20.21 29.03-31.32 60.17-33.02 86.98-1.26 19.86 2.63 37.14 11.59 49.55Z" fill="#fff"/></svg>